<svg width="82" height="24" viewBox="0 0 82 24" fill="none" xmlns="http://www.w3.org/2000/svg">
<path d="M9.14 23.36C7.72 23.36 6.4 23.1 5.18 22.58C3.98 22.06 2.94 21.34 2.06 20.42C1.2 19.48 0.57 18.39 0.17 17.15L3.56 15.68C4.1 16.96 4.88 17.97 5.9 18.71C6.92 19.43 8.07 19.79 9.35 19.79C10.07 19.79 10.69 19.68 11.21 19.46C11.75 19.22 12.16 18.9 12.44 18.5C12.74 18.1 12.89 17.62 12.89 17.06C12.89 16.4 12.69 15.86 12.29 15.44C11.91 15 11.33 14.66 10.55 14.42L6.26 13.04C4.52 12.5 3.21 11.69 2.33 10.61C1.45 9.53 1.01 8.26 1.01 6.8C1.01 5.52 1.32 4.39 1.94 3.41C2.58 2.43 3.46 1.67 4.58 1.13C5.72 0.569999 7.02 0.289999 8.48 0.289999C9.82 0.289999 11.05 0.529999 12.17 1.01C13.29 1.47 14.25 2.12 15.05 2.96C15.87 3.78 16.48 4.75 16.88 5.87L13.52 7.37C13.08 6.25 12.42 5.39 11.54 4.79C10.66 4.17 9.64 3.86 8.48 3.86C7.8 3.86 7.2 3.98 6.68 4.22C6.16 4.44 5.75 4.76 5.45 5.18C5.17 5.58 5.03 6.06 5.03 6.62C5.03 7.24 5.23 7.79 5.63 8.27C6.03 8.73 6.64 9.09 7.46 9.35L11.57 10.64C13.35 11.22 14.68 12.02 15.56 13.04C16.46 14.06 16.91 15.32 16.91 16.82C16.91 18.1 16.58 19.23 15.92 20.21C15.26 21.19 14.35 21.96 13.19 22.52C12.03 23.08 10.68 23.36 9.14 23.36ZM20.5838 23V0.649998H24.4838L32.8538 12.02H30.9938L39.1838 0.649998H43.0838V23H38.9738V5.3L40.5638 5.69L32.0738 17H31.5938L23.3138 5.69L24.6638 5.3V23H20.5838ZM48.1412 10.4L53.2412 0.649998H57.0212L62.0912 10.4H57.7712L54.3212 3.77H55.9712L52.4912 10.4H48.1412ZM66.3859 23V19.91L72.4459 13.58C73.6459 12.32 74.5659 11.32 75.2059 10.58C75.8659 9.82 76.3259 9.17 76.5859 8.63C76.8459 8.09 76.9759 7.54 76.9759 6.98C76.9759 6.04 76.6759 5.3 76.0759 4.76C75.4959 4.22 74.7459 3.95 73.8259 3.95C72.8659 3.95 72.0359 4.23 71.3359 4.79C70.6359 5.33 70.1259 6.13 69.8059 7.19L66.2359 6.08C66.4759 4.9 66.9659 3.88 67.7059 3.02C68.4459 2.14 69.3459 1.47 70.4059 1.01C71.4859 0.529999 72.6259 0.289999 73.8259 0.289999C75.2659 0.289999 76.5259 0.549999 77.6059 1.07C78.7059 1.59 79.5559 2.32 80.1559 3.26C80.7759 4.2 81.0859 5.3 81.0859 6.56C81.0859 7.36 80.9359 8.15 80.6359 8.93C80.3359 9.71 79.8859 10.51 79.2859 11.33C78.6859 12.13 77.9059 13.03 76.9459 14.03L71.6959 19.55H81.3859V23H66.3859Z" fill="#FF7A00"/>
</svg>
